HIERARCHY
ROOT SpineBase
{
  OFFSET 0.000000 0.000000 0.000000
  CHANNELS 6 Xposition Yposition Zposition Zrotation Xrotation Yrotation
  JOINT SpineMid
  {
    OFFSET 0.000000 33.080759 0.000000
    CHANNELS 3 Zrotation Xrotation Yrotation
    JOINT SpineShoulder
    {
      OFFSET 0.295827 24.585762 -0.830390
      CHANNELS 3 Zrotation Xrotation Yrotation
      JOINT Neck
      {
        OFFSET 0.092227 8.167245 -0.691600
        CHANNELS 3 Zrotation Xrotation Yrotation
        JOINT Head
        {
          OFFSET 7.976383 10.289916 3.611635
          CHANNELS 3 Zrotation Xrotation Yrotation
          End Site
          {
            OFFSET 0 0 0
          }
        }
      }
      JOINT ShoulderLeft
      {
        OFFSET -7.219419 -3.068874 -12.808197
        CHANNELS 3 Zrotation Xrotation Yrotation
        JOINT ElbowLeft
        {
          OFFSET -4.340355 -22.544364 -8.172032
          CHANNELS 3 Zrotation Xrotation Yrotation
          JOINT WristLeft
          {
            OFFSET 9.674974 -18.721001 3.725702
            CHANNELS 3 Zrotation Xrotation Yrotation
            JOINT HandLeft
            {
              OFFSET 2.896415 -6.973094 2.762182
              CHANNELS 3 Zrotation Xrotation Yrotation
              JOINT HandTipLeft
              {
                OFFSET 5.567574 -6.637545 -1.469239
                CHANNELS 3 Zrotation Xrotation Yrotation
                End Site
                {
                  OFFSET 0 0 0
                }
              }
              JOINT ThumbLeft
              {
                OFFSET 1.385111 0.186743 -2.992877
                CHANNELS 3 Zrotation Xrotation Yrotation
                End Site
                {
                  OFFSET 0 0 0
                }
              }
            }
          }
        }
      }
      JOINT ShoulderRight
      {
        OFFSET 8.822736 -6.973604 12.536453
        CHANNELS 3 Zrotation Xrotation Yrotation
        JOINT ElbowRight
        {
          OFFSET 2.634842 -26.033631 -0.559182
          CHANNELS 3 Zrotation Xrotation Yrotation
          JOINT WristRight
          {
            OFFSET 1.268812 -16.795809 -14.043707
            CHANNELS 3 Zrotation Xrotation Yrotation
            JOINT HandRight
            {
              OFFSET 1.046438 -3.430047 -0.852635
              CHANNELS 3 Zrotation Xrotation Yrotation
              JOINT HandTipRight
              {
                OFFSET 4.642797 -9.038407 3.525470
                CHANNELS 3 Zrotation Xrotation Yrotation
                End Site
                {
                  OFFSET 0 0 0
                }
              }
              JOINT ThumbRight
              {
                OFFSET -2.523820 1.275421 -6.989297
                CHANNELS 3 Zrotation Xrotation Yrotation
                End Site
                {
                  OFFSET 0 0 0
                }
              }
            }
          }
        }
      }
    }
  }
  JOINT HipLeft
  {
    OFFSET -3.304316 2.100619 -8.276262
    CHANNELS 3 Zrotation Xrotation Yrotation
    JOINT KneeLeft
    {
      OFFSET -4.898992 -34.072173 -3.948311
      CHANNELS 3 Zrotation Xrotation Yrotation
      JOINT AnkleLeft
      {
        OFFSET -3.987744 -30.447464 5.116633
        CHANNELS 3 Zrotation Xrotation Yrotation
        JOINT FootLeft
        {
          OFFSET 5.780418 -5.168215 -5.136513
          CHANNELS 3 Zrotation Xrotation Yrotation
          End Site
          {
            OFFSET 0 0 0
          }
        }
      }
    }
  }
  JOINT HipRight
  {
    OFFSET 3.735173 0.952569 1.288472
    CHANNELS 3 Zrotation Xrotation Yrotation
    JOINT KneeRight
    {
      OFFSET 13.868532 -27.961706 -10.595141
      CHANNELS 3 Zrotation Xrotation Yrotation
      JOINT AnkleRight
      {
        OFFSET -14.108026 25.968489 -11.654063
        CHANNELS 3 Zrotation Xrotation Yrotation
        JOINT FootRight
        {
          OFFSET 4.622143 -9.761008 -5.710044
          CHANNELS 3 Zrotation Xrotation Yrotation
          End Site
          {
            OFFSET 0 0 0
          }
        }
      }
    }
  }
}
MOTION
Frames: 13
Frame Time: 0.033333
1.377110 68.780414 284.282460 -3.740042 -6.993821 -38.163125 0.123396 0.167077 37.888550 -0.195626 0.714492 -0.173172 16.772481 1.022912 -1.498612 0.000000 0.000000 0.000000 26.156005 10.714088 -12.582603 20.237769 22.909194 22.350965 20.552594 16.787844 16.082945 -27.051813 -3.990974 -31.601210 0.000000 0.000000 0.000000 0.000000 0.000000 0.000000 32.624816 26.204498 -6.714437 -12.805263 15.781592 -11.624442 -21.900795 25.315931 22.594712 -13.891304 3.309570 2.693157 0.000000 0.000000 0.000000 0.000000 0.000000 0.000000 -30.958828 53.689735 45.583633 -36.841301 -53.097465 -19.687657 21.909323 21.919482 12.209880 0.000000 0.000000 0.000000 -23.941046 63.072399 66.258155 174.150953 -6.081743 155.358091 -152.404346 -23.082793 159.078277 0.000000 0.000000 0.000000
4.409905 69.620752 284.741020 -3.290698 -6.004728 -48.657348 0.263568 0.177572 48.438823 -0.038079 0.524595 -0.148457 13.958749 3.375963 -3.213572 0.000000 0.000000 0.000000 35.616185 10.375434 -18.170263 17.203634 20.549506 26.851427 20.154475 11.623308 16.910884 -30.834602 -0.910593 -34.737097 0.000000 0.000000 0.000000 0.000000 0.000000 0.000000 39.185531 21.234278 -7.628094 -14.622669 28.187054 -15.830157 -19.197384 21.952424 22.154180 -10.325741 6.047724 18.690052 0.000000 0.000000 0.000000 0.000000 0.000000 0.000000 -22.763440 25.405043 50.201669 -20.028056 -25.138593 -7.838982 24.081168 16.408128 12.181068 0.000000 0.000000 0.000000 -11.496647 34.724687 57.359829 -175.691638 -25.738713 144.417075 -175.827751 -19.724360 151.154315 0.000000 0.000000 0.000000
7.635558 70.024913 285.212237 -2.925417 -4.959298 -55.292237 0.384724 0.209556 55.119625 -0.077418 0.468982 -0.129635 12.702422 4.728659 -4.653866 0.000000 0.000000 0.000000 45.611511 8.462493 -23.281823 13.238488 15.910409 31.100067 18.425558 3.618848 18.129599 -27.744800 10.532863 -33.568278 0.000000 0.000000 0.000000 0.000000 0.000000 0.000000 47.152514 19.071629 -8.814663 -14.872336 32.345454 -22.512837 -12.030534 19.983718 23.007364 -4.619346 -0.573639 32.079436 0.000000 0.000000 0.000000 0.000000 0.000000 0.000000 -15.340155 5.879522 55.733545 -11.009643 -4.310461 -4.777034 25.868000 11.748943 11.943264 0.000000 0.000000 0.000000 0.303644 8.132229 53.224169 178.070927 -44.010129 116.385634 168.694536 4.619968 134.379760 0.000000 0.000000 0.000000
10.512667 70.012812 285.533796 -2.632700 -3.979452 -58.839904 0.422649 0.243369 58.703704 -0.164393 0.442050 -0.118518 11.842349 5.572845 -5.739108 0.000000 0.000000 0.000000 54.307332 5.494906 -26.839067 11.351214 10.493413 34.699530 12.701816 -1.953444 17.252359 -26.292407 16.345888 -32.122519 0.000000 0.000000 0.000000 0.000000 0.000000 0.000000 48.802005 19.669270 -9.003511 -5.767052 31.029311 -30.784792 -11.004003 16.577928 25.100029 -0.336554 2.867540 44.663253 0.000000 0.000000 0.000000 0.000000 0.000000 0.000000 -12.103394 -4.403768 59.678091 -4.941519 5.350038 -4.435201 27.131425 8.746494 11.466930 0.000000 0.000000 0.000000 6.978262 -9.657304 54.175621 159.291960 -38.654753 70.756092 168.155671 38.847229 105.827221 0.000000 0.000000 0.000000
12.521359 69.500157 285.556654 -3.060354 -2.830672 -59.945775 -0.144130 0.028770 59.802633 0.027028 0.306626 -0.153284 12.819386 5.614367 -6.796167 0.000000 0.000000 0.000000 62.546418 2.348267 -28.848441 9.926942 3.496950 38.325034 9.245768 -5.188389 16.846688 -22.527266 20.772587 -31.934317 0.000000 0.000000 0.000000 0.000000 0.000000 0.000000 45.791058 23.142056 -8.362657 9.647228 23.338269 -37.431845 -10.340395 13.081898 28.482922 0.044148 10.072582 52.257693 0.000000 0.000000 0.000000 0.000000 0.000000 0.000000 -11.785016 -7.322085 60.813786 -3.103382 6.353313 -4.742034 29.196496 7.635159 10.208021 0.000000 0.000000 0.000000 12.408677 -17.234090 54.062167 150.293907 -25.714435 43.198730 -163.411180 52.861593 62.718679 0.000000 0.000000 0.000000
14.146679 68.397383 286.024206 -3.701918 -2.184083 -58.561284 -0.159668 0.182731 58.398081 -0.211726 0.601385 -0.186761 14.358291 5.148613 -7.383912 0.000000 0.000000 0.000000 69.370549 -1.312847 -29.294841 8.467142 -1.947531 40.816294 5.379840 -10.059537 16.974849 -19.964548 17.083147 -33.648826 0.000000 0.000000 0.000000 0.000000 0.000000 0.000000 39.187993 26.323662 -6.658233 26.989736 12.703550 -40.403015 -9.774216 13.132596 32.580517 -5.599374 19.103030 53.433178 0.000000 0.000000 0.000000 0.000000 0.000000 0.000000 -18.142449 -3.900285 58.827128 -3.925585 -3.553411 -5.723292 31.606880 9.387124 8.325764 0.000000 0.000000 0.000000 13.535232 -19.947922 52.607094 147.607073 -22.217546 35.678419 -144.489527 54.242042 40.773711 0.000000 0.000000 0.000000
14.709007 66.976318 286.494827 -4.761623 -1.802927 -53.691681 -0.593772 0.297441 53.496519 -0.235895 0.812658 -0.239250 16.192249 4.164719 -7.302531 0.000000 0.000000 0.000000 75.121182 -4.388825 -28.705539 5.926765 -5.162614 42.206425 2.832421 -13.111603 16.928513 -25.072809 14.839106 -31.568479 0.000000 0.000000 0.000000 0.000000 0.000000 0.000000 29.120420 29.220436 -3.470663 47.322649 -1.037648 -39.009429 -6.007420 18.618518 35.784854 -15.521161 35.548871 53.148487 0.000000 0.000000 0.000000 0.000000 0.000000 0.000000 -20.855519 -0.221312 54.311522 -3.928831 -7.288383 -6.225837 32.425884 9.103134 7.887581 0.000000 0.000000 0.000000 10.606690 -16.889099 48.283698 148.882832 -31.890918 48.612353 -150.522370 40.048822 61.334079 0.000000 0.000000 0.000000
14.797802 65.889784 286.956287 -6.184592 -1.396972 -46.700531 -0.735663 0.603219 46.475268 -0.106811 0.910703 -0.286886 17.770608 3.312448 -7.048171 0.000000 0.000000 0.000000 79.017369 -5.916190 -28.201893 5.695661 -7.817378 43.581899 -0.836136 -10.388127 15.573938 -22.281051 4.924905 -35.338380 0.000000 0.000000 0.000000 0.000000 0.000000 0.000000 19.638257 30.943205 -0.124062 63.853430 -10.030378 -35.370279 -19.335332 34.410634 34.208145 -23.250049 32.294768 54.088296 0.000000 0.000000 0.000000 0.000000 0.000000 0.000000 -21.947163 5.342741 48.205531 -4.638690 -10.532224 -6.720992 32.888979 8.655380 7.790446 0.000000 0.000000 0.000000 11.295041 -17.827015 39.894228 145.888537 -33.152466 46.245076 -145.883205 35.979434 59.151996 0.000000 0.000000 0.000000
15.009288 65.124425 287.093189 -6.819061 -0.903384 -38.996621 -0.808840 0.671776 38.771655 -0.255218 0.922280 -0.331492 18.506344 2.453395 -6.435231 0.000000 0.000000 0.000000 80.736251 -6.962687 -27.098449 4.528498 -8.571700 43.242511 -1.806389 -21.676949 17.256138 -15.374015 5.690171 -39.228910 0.000000 0.000000 0.000000 0.000000 0.000000 0.000000 11.612328 30.791500 2.704559 76.912676 -15.849343 -32.481407 -33.591220 42.860452 35.574671 -30.661412 37.806752 53.624771 0.000000 0.000000 0.000000 0.000000 0.000000 0.000000 -22.135550 9.883357 41.277005 -4.762044 -12.902938 -7.075966 33.230819 8.426966 7.702533 0.000000 0.000000 0.000000 10.715976 -20.349728 31.043047 143.866561 -33.905081 43.760218 -142.835171 31.974572 57.590063 0.000000 0.000000 0.000000
15.181033 64.612608 287.102807 -7.697495 -0.203949 -31.766646 -0.700256 0.869413 31.557215 -0.057272 0.871896 -0.353914 19.300645 1.262524 -5.785347 0.000000 0.000000 0.000000 82.012182 -7.471213 -26.298667 1.646529 -8.538518 42.741085 -9.082074 -38.958455 15.999061 -5.127897 14.314829 -41.130883 0.000000 0.000000 0.000000 0.000000 0.000000 0.000000 3.043669 30.301485 5.470418 88.391986 -17.321883 -30.748419 -49.802237 44.648084 39.746393 -34.671843 40.808858 53.147639 0.000000 0.000000 0.000000 0.000000 0.000000 0.000000 -20.686669 13.914681 34.612620 -5.272578 -14.657896 -7.456652 33.562348 8.392106 7.769262 0.000000 0.000000 0.000000 9.719969 -22.718178 22.812886 142.611048 -34.510356 42.050381 -141.538229 29.342471 57.331742 0.000000 0.000000 0.000000
15.175524 64.424471 287.027669 -8.153274 0.202974 -29.518341 -0.406501 0.910454 29.320035 0.131057 0.759853 -0.353641 17.367110 1.472762 -5.280541 0.000000 0.000000 0.000000 81.061247 -6.699885 -26.326220 0.405485 -7.562449 42.157941 -8.423078 -49.410218 16.618417 0.976774 20.026954 -45.060980 0.000000 0.000000 0.000000 0.000000 0.000000 0.000000 0.380336 27.621399 5.787788 95.648723 -13.819882 -37.598262 -59.701383 37.035771 40.392355 -40.302836 43.958859 49.185588 0.000000 0.000000 0.000000 0.000000 0.000000 0.000000 -19.469493 15.142749 32.408328 -5.924090 -15.135332 -7.669391 33.635411 8.623117 8.046431 0.000000 0.000000 0.000000 9.776709 -23.460288 20.170222 141.874707 -34.589261 41.345951 -142.113069 29.619920 57.975812 0.000000 0.000000 0.000000
14.970396 64.705810 286.796881 -8.367878 0.402113 -34.357891 -0.034782 0.849096 34.160596 0.332692 0.604545 -0.338283 13.660411 2.654329 -4.853855 0.000000 0.000000 0.000000 78.945331 -5.195416 -26.946800 -4.020429 -4.313290 40.780881 -5.043484 -71.588532 19.074580 10.716724 32.978809 -52.181711 0.000000 0.000000 0.000000 0.000000 0.000000 0.000000 4.519622 24.760777 4.179255 89.676941 -9.521766 -43.218926 -61.172784 30.403121 38.862140 -44.863848 48.594232 47.845257 0.000000 0.000000 0.000000 0.000000 0.000000 0.000000 -18.827976 12.782210 36.803525 -6.764881 -13.851859 -7.618003 33.490570 9.005231 8.389423 0.000000 0.000000 0.000000 12.054148 -21.952722 25.521089 142.036161 -34.341752 42.079112 -145.274902 33.642232 60.135911 0.000000 0.000000 0.000000
14.690350 64.044805 286.726089 -8.428304 0.397394 -30.382401 0.204908 0.754330 30.175082 0.351256 0.547405 -0.338187 11.697539 3.061187 -4.290964 0.000000 0.000000 0.000000 76.806460 -3.389608 -27.545763 -7.382935 -2.215592 39.808852 -4.031062 -73.935957 17.345022 21.318613 35.376918 -57.949712 0.000000 0.000000 0.000000 0.000000 0.000000 0.000000 13.630496 25.473529 2.047949 78.334752 -8.115894 -43.316113 -50.276520 24.893639 37.872224 -61.842851 58.598837 42.771579 0.000000 0.000000 0.000000 0.000000 0.000000 0.000000 -17.965029 14.973728 32.988130 -7.150832 -14.835535 -7.725079 33.289603 9.273330 8.492267 0.000000 0.000000 0.000000 11.093753 -23.106213 20.901919 141.389168 -34.833769 41.536683 -145.749058 33.049510 61.126280 0.000000 0.000000 0.000000
